<?xml version="1.0" ?>

<svg fill="#000000" width="800px" height="800px" viewBox="0 0 64 64" xmlns="http://www.w3.org/2000/svg">

    <title/>

    <g data-name="Layer 32" id="Layer_32">

        <path d="M55,12.59l-5,5V55H60V17.59ZM58,53H52V48h6Zm-6-7V18.41l3-3,3,3V46Z"/>

        <path d="M43.57,9H43V5a2,2,0,0,0-2-2H39a2,2,0,0,0-2,2V9H14V5a2,2,0,0,0-2-2H10A2,2,0,0,0,8,5V9H6.43A2.63,2.63,0,0,0,4,11.79V58.21A2.63,2.63,0,0,0,6.43,61H43.57A2.63,2.63,0,0,0,46,58.21V11.79A2.63,2.63,0,0,0,43.57,9ZM39,5h2v6H39ZM10,5h2v6H10ZM44,58.21c0,.47-.26.79-.43.79H6.43c-.17,0-.43-.32-.43-.79V11.79c0-.47.26-.79.43-.79H8a2,2,0,0,0,2,2h2a2,2,0,0,0,2-2H37a2,2,0,0,0,2,2h2a2,2,0,0,0,2-2h.57c.17,0,.43.32.43.79Z"/>

        <rect height="2" width="30" x="10" y="22"/>

        <rect height="2" width="30" x="10" y="28"/>

        <rect height="2" width="30" x="10" y="34"/>

        <rect height="2" width="30" x="10" y="40"/>

    </g>

</svg>
