<?xml version="1.0" encoding="utf-8"?><!-- Uploaded to: SVG Repo, www.svgrepo.com, Generator: SVG Repo Mixer Tools -->
<svg width="800px" height="800px" viewBox="0 0 24 24" fill="none" xmlns="http://www.w3.org/2000/svg">
    <path d="M12 5C8.24261 5 5.43602 7.4404 3.76737 9.43934C2.51521 10.9394 2.51521 13.0606 3.76737 14.5607C5.43602 16.5596 8.24261 19 12 19C15.7574 19 18.564 16.5596 20.2326 14.5607C21.4848 13.0606 21.4848 10.9394 20.2326 9.43934C18.564 7.4404 15.7574 5 12 5Z"
          stroke="#000000" stroke-width="1.5" stroke-linecap="round" stroke-linejoin="round"/>
    <path d="M12 15C13.6569 15 15 13.6569 15 12C15 10.3431 13.6569 9 12 9C10.3431 9 9 10.3431 9 12C9 13.6569 10.3431 15 12 15Z"
          stroke="#000000" stroke-width="1.5" stroke-linecap="round" stroke-linejoin="round"/>
</svg>
